{"title":"John.Wick.2014.BRRip.720p.Legendado.DEX","uid":11725595,"size":1222634337,"categoryP":"video","categoryS":"hd___movies","magnet":"?xt=urn:btih:39a4fd43b3c6ea4dee73ffa2862474577be1869a&amp;dn=John.Wick.2014.BRRip.720p.Legendado.DEX&amp;tr=udp%3A%2F%2Ftracker.openbittorrent.com%3A80&amp;tr=udp%3A%2F%2Fopen.demonii.com%3A1337&amp;tr=udp%3A%2F%2Ftracker.coppersurfer.tk%3A6969&amp;tr=udp%3A%2F%2Fexodus.desync.com%3A6969","seeders":7,"leechers":2,"uploader":"Dexnet24","files":10,"time":1425033548,"description":"Screencap:\n &lt;a href=&quot; http://imgur.com/BtWZ9ZM&quot; rel=&quot;nofollow&quot; target=&quot;_NEW&quot;&gt; http://imgur.com/BtWZ9ZM&lt;/a&gt;\n\n\nGeneral\nComplete name: John.Wick.2014.BRRip.720p.Legendado.DEX.mp4\nFormat: MPEG-4\nFormat profile: Base Media / Version 2\nCodec ID: mp42\nFile size: 1.14 GiB\nDuration: 1h 41mn\nOverall bit rate: 1 610 Kbps\nMovie name: John Wick\nWriting application: TMPGEnc Video Mastering Works 5 Version. 5.0.6.38\n\nVideo\nID: 2\nFormat: AVC\nFormat/Info: Advanced Video Codec\nFormat profile: &lt;a class=&quot;__cf_email__&quot; href=&quot;/cdn-cgi/l/email-protection&quot; data-cfemail=&quot;ace4c5cbc4ece09f829d&quot;&gt;[email&amp;#160;protected]&lt;/a&gt;&lt;script cf-hash='f9e31' type=&quot;text/javascript&quot;&gt;\n/* &lt;![CDATA[ */!function(){try{var t=&quot;currentScript&quot;in document?document.currentScript:function(){for(var t=document.getElementsByTagName(&quot;script&quot;),e=t.length;e--;)if(t[e].getAttribute(&quot;cf-hash&quot;))return t[e]}();if(t&amp;&amp;t.previousSibling){var e,r,n,i,c=t.previousSibling,a=c.getAttribute(&quot;data-cfemail&quot;);if(a){for(e=&quot;&quot;,r=parseInt(a.substr(0,2),16),n=2;a.length-n;n+=2)i=parseInt(a.substr(n,2),16)^r,e+=String.fromCharCode(i);e=document.createTextNode(e),c.parentNode.replaceChild(e,c)}}}catch(u){}}();/* ]]&gt; */&lt;/script&gt;\nFormat settings, CABAC: Yes\nFormat settings, ReFrames: 3 frames\nCodec ID: avc1\nCodec ID/Info: Advanced Video Coding\nDuration: 1h 41mn\nBit rate: 1 500 Kbps\nWidth: 1 280 pixels\nHeight: 536 pixels\nDisplay aspect ratio: 2.40:1\nFrame rate mode: Constant\nFrame rate: 23.976 fps\nStandard: NTSC\nColor space: YUV\nChroma subsampling: 4:2:0\nBit depth: 8 bits\nScan type: Progressive\nBits/(Pixel*Frame): 0.091\nStream size: 1.05 GiB (92%)\nWriting library: x264 core 114\nEncoding settings: cabac=1 / ref=3 / deblock=1:0:0 / analyse=0x3:0x113 / me=hex / subme=7 / psy=1 / psy_rd=1.00:0.00 / mixed_ref=1 / me_range=16 / chroma_me=1 / trellis=1 / 8x8dct=1 / cqm=2 / deadzone=21,11 / fast_pskip=1 / chroma_qp_offset=-2 / threads=3 / sliced_threads=0 / slices=1 / nr=0 / decimate=1 / interlaced=0 / constrained_intra=0 / bframes=3 / b_pyramid=0 / b_adapt=1 / b_bias=0 / direct=1 / weightb=1 / open_gop=0 / weightp=2 / keyint=250 / keyint_min=23 / scenecut=40 / intra_refresh=0 / rc_lookahead=40 / rc=abr / mbtree=1 / bitrate=1500 / ratetol=1.0 / qcomp=0.60 / qpmin=3 / qpmax=69 / qpstep=4 / vbv_maxrate=8000 / vbv_bufsize=7995 / nal_hrd=vbr / ip_ratio=1.40 / aq=1:1.00\nColor primaries: BT.709\nTransfer characteristics: BT.709\nMatrix coefficients: BT.709\n\nAudio\nID: 1\nFormat: AAC\nFormat/Info: Advanced Audio Codec\nFormat profile: LC\nCodec ID: 40\nDuration: 1h 41mn\nBit rate: 128 Kbps\nChannel(s): 2 channels\nChannel positions: Front: L R\nSampling rate: 48.0 KHz\nCompression mode: Lossy\nStream size: 92.7 MiB (8%)\n\nSubtitles\nArabic, Dutch, English, French, Portuguese Brazil/Portugal","torrent":{"xt":"urn:btih:39a4fd43b3c6ea4dee73ffa2862474577be1869a","amp;dn":"John.Wick.2014.BRRip.720p.Legendado.DEX","amp;tr":["udp%3A%2F%2Ftracker.openbittorrent.com%3A80","udp%3A%2F%2Fopen.demonii.com%3A1337","udp%3A%2F%2Ftracker.coppersurfer.tk%3A6969","udp%3A%2F%2Fexodus.desync.com%3A6969"],"infoHash":"39a4fd43b3c6ea4dee73ffa2862474577be1869a","infoHashBuffer":{"type":"Buffer","data":[57,164,253,67,179,198,234,77,238,115,255,162,134,36,116,87,123,225,134,154]},"announce":[],"urlList":[]}}